<svg width="96" height="24" viewBox="0 0 96 24" fill="none" xmlns="http://www.w3.org/2000/svg">
<path d="M1.85598 11.264C1.85598 14.496 1.95198 16.112 2.14398 16.112C2.49598 16.112 2.72532 15.9947 2.83198 15.76C2.94932 15.5254 3.00798 15.1307 3.00798 14.576C3.00798 14.0214 2.98132 13.2214 2.92798 12.176C2.87465 11.12 2.84798 10.352 2.84798 9.87202C2.84798 9.38135 2.85865 8.98669 2.87998 8.68802C3.02932 8.63469 3.29598 8.60269 3.67998 8.59202C4.07465 8.58135 4.39998 8.54935 4.65598 8.49602C4.91198 8.44269 5.03998 8.33602 5.03998 8.17602C5.03998 7.93069 4.77332 7.80802 4.23998 7.80802L2.87998 7.93602V7.26402C2.87998 6.03735 2.95998 5.26402 3.11998 4.94402C3.19465 4.79469 3.29598 4.67202 3.42398 4.57602C3.56265 4.48002 3.76532 4.43202 4.03198 4.43202C4.29865 4.43202 4.50665 4.52269 4.65598 4.70402C4.81598 4.88535 4.99198 5.23202 5.18398 5.74402C5.25865 5.76535 5.33332 5.77602 5.40798 5.77602C5.62132 5.77602 5.80798 5.68002 5.96798 5.48802C5.75465 4.81602 5.50932 4.34135 5.23198 4.06402C4.96532 3.77602 4.54398 3.63202 3.96798 3.63202C3.40265 3.63202 2.99732 3.72269 2.75198 3.90402C2.61332 4.00002 2.49065 4.09602 2.38398 4.19202C2.27732 4.28802 2.19198 4.43202 2.12798 4.62402C2.06398 4.80535 2.01065 4.97069 1.96798 5.12002C1.93598 5.26935 1.90932 5.47735 1.88798 5.74402C1.87732 6.01069 1.86665 6.24002 1.85598 6.43202C1.84532 6.61335 1.83465 6.87469 1.82398 7.21602C1.82398 7.54669 1.81865 7.81869 1.80798 8.03202C1.57332 8.01069 1.31198 8.00002 1.02398 8.00002C0.362649 8.00002 0.0319824 8.10135 0.0319824 8.30402C0.0319824 8.46402 0.111982 8.57602 0.271982 8.64002C0.357316 8.67202 0.437316 8.69869 0.511982 8.72002C0.597316 8.74135 0.703982 8.75735 0.831982 8.76802C0.970649 8.76802 1.08265 8.77335 1.16798 8.78402H1.83998C1.85065 9.07202 1.85598 9.89869 1.85598 11.264Z" fill="white"/>
<path d="M30.8369 4.30402C31.1249 4.66669 31.2689 5.37602 31.2689 6.43202C31.2689 7.00802 31.1835 8.09602 31.0129 9.69602C30.9275 10.4854 30.8795 11.0934 30.8689 11.52C30.8582 11.936 30.8529 12.32 30.8529 12.672C30.8529 13.024 30.8902 13.472 30.9649 14.016C31.0502 14.5494 31.2529 14.9974 31.5729 15.36C31.8929 15.712 32.3462 15.888 32.9329 15.888C33.5302 15.888 33.8449 15.696 33.8769 15.312C33.8129 15.2267 33.7329 15.184 33.6369 15.184L33.0449 15.296C32.2662 15.296 31.8769 14.288 31.8769 12.272C31.8769 11.5254 31.9409 10.352 32.0689 8.75202C32.1329 7.83469 32.1649 7.02935 32.1649 6.33602C32.1649 5.05602 32.0315 4.28269 31.7649 4.01602C31.6902 4.00535 31.6209 4.00002 31.5569 4.00002C31.2155 4.00002 30.9755 4.10135 30.8369 4.30402Z" fill="white"/>
<path d="M42.3246 5.52002L42.1806 12.688C42.1806 14.8 42.3673 15.856 42.7406 15.856C42.9753 15.856 43.2046 15.488 43.4286 14.752C43.6633 14.0054 43.8606 13.184 44.0206 12.288C44.1806 11.392 44.3993 10.576 44.6766 9.84002C44.9646 9.09335 45.2793 8.72002 45.6206 8.72002C45.8979 8.72002 46.0953 8.96535 46.2126 9.45602C46.3299 9.93602 46.3993 10.5227 46.4206 11.216C46.4526 11.8987 46.4953 12.5867 46.5486 13.28C46.6126 13.9734 46.7673 14.5654 47.0126 15.056C47.2686 15.536 47.6313 15.776 48.1006 15.776C48.3779 15.776 48.6819 15.6907 49.0126 15.52C49.3433 15.3387 49.5086 15.1894 49.5086 15.072C49.4553 15.008 49.2153 15.04 48.7886 15.168C48.5966 15.232 48.4953 15.264 48.4846 15.264C47.9939 15.264 47.6953 14.432 47.5886 12.768C47.5459 12.0747 47.4926 11.3814 47.4286 10.688C47.3646 9.99469 47.2046 9.40802 46.9486 8.92802C46.7033 8.43735 46.3513 8.19202 45.8926 8.19202C44.6019 8.19202 43.7059 9.54135 43.2046 12.24C43.3006 10.2987 43.3486 9.06135 43.3486 8.52802C43.3486 6.73602 43.2686 5.26935 43.1086 4.12802C42.7139 4.12802 42.4206 4.21335 42.2286 4.38402C42.2926 4.58669 42.3246 4.96535 42.3246 5.52002Z" fill="white"/>
<path fill-rule="evenodd" clip-rule="evenodd" d="M54.9531 11.392L54.8731 13.232C54.8731 14.16 54.9798 14.784 55.1931 15.104C55.3211 15.3174 55.4971 15.424 55.7211 15.424C55.7851 15.424 55.8758 15.408 55.9931 15.376C56.2171 15.312 56.4038 15.344 56.5531 15.472C56.4784 15.8454 56.1051 16.032 55.4331 16.032C54.9744 16.032 54.6704 15.84 54.5211 15.456C54.4038 15.168 54.3184 14.8107 54.2651 14.384C54.2118 13.9467 54.1691 13.648 54.1371 13.488C53.4438 14.8107 52.7718 15.616 52.1211 15.904C51.7904 16.0534 51.4064 16.128 50.9691 16.128C50.5318 16.128 50.1904 15.92 49.9451 15.504C49.7104 15.0774 49.5931 14.4587 49.5931 13.648C49.5931 12.8374 49.7264 11.9894 49.9931 11.104C50.2598 10.208 50.6491 9.45602 51.1611 8.84802C51.6731 8.22935 52.2331 7.92002 52.8411 7.92002C53.7158 7.92002 54.2971 8.28269 54.5851 9.00802C54.8304 9.62669 54.9531 10.4214 54.9531 11.392ZM51.0331 10.88C50.8838 11.456 50.7718 12.0054 50.6971 12.528C50.6224 13.04 50.5851 13.4987 50.5851 13.904C50.5851 14.2987 50.6651 14.64 50.8251 14.928C50.9958 15.216 51.2144 15.36 51.4811 15.36C52.0571 15.36 52.6118 14.816 53.1451 13.728C53.6784 12.64 53.9451 11.6267 53.9451 10.688C53.9451 10.08 53.7851 9.57869 53.4651 9.18402C53.2518 8.92802 52.9691 8.80002 52.6171 8.80002C52.2758 8.80002 51.9611 9.00269 51.6731 9.40802C51.3958 9.80269 51.1824 10.2934 51.0331 10.88Z" fill="white"/>
<path d="M61.1006 9.60002C61.0046 9.35469 60.8233 9.16269 60.5566 9.02402C60.2899 8.88535 59.9593 8.81602 59.5646 8.81602C59.1699 8.81602 58.7966 8.93335 58.4446 9.16802C58.1033 9.40269 57.9326 9.71735 57.9326 10.112C57.9326 10.5067 58.0926 10.8214 58.4126 11.056C58.7433 11.28 59.1379 11.4507 59.5966 11.568C60.0659 11.6854 60.5353 11.8134 61.0046 11.952C61.4739 12.08 61.8686 12.2987 62.1886 12.608C62.5193 12.9067 62.6846 13.3014 62.6846 13.792C62.6846 14.5067 62.3859 15.0507 61.7886 15.424C61.2019 15.7974 60.4926 15.984 59.6606 15.984C59.1699 15.984 58.5246 15.8507 57.7246 15.584C56.9353 15.3174 56.5406 14.9974 56.5406 14.624C56.5406 14.3467 56.7753 14.208 57.2446 14.208C57.3833 14.208 57.5646 14.2934 57.7886 14.464C58.4713 14.9654 59.1699 15.216 59.8846 15.216C60.2686 15.216 60.5993 15.152 60.8766 15.024C61.3886 14.7787 61.6446 14.384 61.6446 13.84C61.6446 13.5094 61.4793 13.2427 61.1486 13.04C60.8286 12.8374 60.4339 12.6774 59.9646 12.56C59.5059 12.4427 59.0419 12.3147 58.5726 12.176C58.1033 12.0374 57.7033 11.808 57.3726 11.488C57.0526 11.1574 56.8926 10.7414 56.8926 10.24C56.8926 9.58935 57.1859 9.06135 57.7726 8.65602C58.3593 8.25069 59.0846 8.04802 59.9486 8.04802C60.5353 8.04802 61.0633 8.20269 61.5326 8.51202C62.0126 8.81069 62.2526 9.24802 62.2526 9.82402C62.2526 10.208 62.0339 10.4 61.5966 10.4C61.4153 10.4 61.2926 10.368 61.2286 10.304C61.1753 10.24 61.1433 10.128 61.1326 9.96802C61.1326 9.79735 61.1219 9.67469 61.1006 9.60002Z" fill="white"/>
<path fill-rule="evenodd" clip-rule="evenodd" d="M35.4814 15.504C35.5134 16.368 35.62 17.5894 35.8014 19.168C35.5987 19.3707 35.3587 19.472 35.0814 19.472C35.028 19.472 34.9694 19.4667 34.9054 19.456C34.8947 19.04 34.8147 18.096 34.6654 16.624C34.5267 15.152 34.4574 14.0267 34.4574 13.248C34.4574 12.4587 34.5054 11.776 34.6014 11.2C34.6974 10.624 34.8627 10.0854 35.0974 9.58402C35.5774 8.54935 36.4627 8.03202 37.7534 8.03202C38.5534 8.03202 39.2094 8.46935 39.7214 9.34402C40.2334 10.2187 40.4894 11.2374 40.4894 12.4C40.4894 13.3174 40.1907 14.1227 39.5934 14.816C38.996 15.5094 38.1694 15.856 37.1134 15.856C36.4627 15.856 35.9187 15.7387 35.4814 15.504ZM37.6254 8.89602C36.7187 8.89602 36.116 9.36535 35.8174 10.304C35.5614 11.104 35.4334 12.208 35.4334 13.616C35.4334 14.128 35.4387 14.5067 35.4494 14.752C36.3987 14.9547 37.044 15.056 37.3854 15.056C38.004 15.056 38.4947 14.8107 38.8574 14.32C39.22 13.8187 39.4014 13.2107 39.4014 12.496C39.4014 11.44 39.2414 10.576 38.9214 9.90402C38.612 9.23202 38.18 8.89602 37.6254 8.89602Z" fill="white"/>
<path fill-rule="evenodd" clip-rule="evenodd" d="M28.6094 11.392L28.5294 13.232C28.5294 14.16 28.636 14.784 28.8494 15.104C28.9774 15.3174 29.1534 15.424 29.3774 15.424C29.4414 15.424 29.532 15.408 29.6494 15.376C29.8734 15.312 30.06 15.344 30.2094 15.472C30.1347 15.8454 29.7614 16.032 29.0894 16.032C28.6307 16.032 28.3267 15.84 28.1774 15.456C28.06 15.168 27.9747 14.8107 27.9214 14.384C27.868 13.9467 27.8254 13.648 27.7934 13.488C27.1 14.8107 26.428 15.616 25.7774 15.904C25.4467 16.0534 25.0627 16.128 24.6254 16.128C24.188 16.128 23.8467 15.92 23.6014 15.504C23.3667 15.0774 23.2494 14.4587 23.2494 13.648C23.2494 12.8374 23.3827 11.9894 23.6494 11.104C23.916 10.208 24.3054 9.45602 24.8174 8.84802C25.3294 8.22935 25.8894 7.92002 26.4974 7.92002C27.372 7.92002 27.9534 8.28269 28.2414 9.00802C28.4867 9.62669 28.6094 10.4214 28.6094 11.392ZM24.6894 10.88C24.54 11.456 24.428 12.0054 24.3534 12.528C24.2787 13.04 24.2414 13.4987 24.2414 13.904C24.2414 14.2987 24.3214 14.64 24.4814 14.928C24.652 15.216 24.8707 15.36 25.1374 15.36C25.7134 15.36 26.268 14.816 26.8014 13.728C27.3347 12.64 27.6014 11.6267 27.6014 10.688C27.6014 10.08 27.4414 9.57869 27.1214 9.18402C26.908 8.92802 26.6254 8.80002 26.2734 8.80002C25.932 8.80002 25.6174 9.00269 25.3294 9.40802C25.052 9.80269 24.8387 10.2934 24.6894 10.88Z" fill="white"/>
<path d="M15.185 15.344L15.137 14.432C15.137 12.8107 15.3983 11.3547 15.921 10.064C16.2623 9.20002 16.673 8.76802 17.153 8.76802C17.3343 8.76802 17.4783 8.82669 17.585 8.94402C17.6916 9.06135 17.761 9.19469 17.793 9.34402C17.825 9.48269 17.8836 9.61069 17.969 9.72802C18.0543 9.84535 18.1716 9.90402 18.321 9.90402C18.481 9.90402 18.625 9.87735 18.753 9.82402C18.881 9.76002 18.945 9.67469 18.945 9.56802C18.945 9.28002 18.7743 8.96002 18.433 8.60802C18.1023 8.24535 17.7343 8.06402 17.329 8.06402C16.9343 8.06402 16.561 8.19735 16.209 8.46402C15.8676 8.72002 15.5903 9.06669 15.377 9.50402C14.993 10.2827 14.7263 11.12 14.577 12.016C14.545 11.7494 14.5183 11.088 14.497 10.032C14.4756 8.97602 14.4436 8.29335 14.401 7.98402C14.2623 7.94135 14.1023 7.92002 13.921 7.92002C13.7503 7.92002 13.585 7.99469 13.425 8.14402C13.4463 8.38935 13.5156 9.43469 13.633 11.28C13.761 13.1254 13.9423 14.6667 14.177 15.904C14.3156 15.9467 14.449 15.968 14.577 15.968C14.7156 15.968 14.849 15.9254 14.977 15.84C15.1157 15.744 15.185 15.5787 15.185 15.344Z" fill="white"/>
<path fill-rule="evenodd" clip-rule="evenodd" d="M6.26923 9.36002C6.81323 8.52802 7.59723 8.11202 8.62123 8.11202C9.64523 8.11202 10.4612 8.52802 11.0692 9.36002C11.6879 10.192 11.9972 11.1414 11.9972 12.208C11.9972 13.264 11.6612 14.16 10.9892 14.896C10.3172 15.632 9.4639 16 8.42923 16C7.39457 16 6.64257 15.712 6.17323 15.136C5.7039 14.5494 5.46923 13.728 5.46923 12.672C5.46923 11.296 5.7359 10.192 6.26923 9.36002ZM6.97323 10.208C6.83457 10.624 6.7279 11.04 6.65323 11.456C6.58923 11.872 6.55723 12.2614 6.55723 12.624C6.55723 12.976 6.5839 13.3014 6.63723 13.6C6.69057 13.888 6.78123 14.176 6.90923 14.464C7.03723 14.7414 7.22923 14.9654 7.48523 15.136C7.74123 15.296 8.04523 15.376 8.39723 15.376C9.1119 15.376 9.70923 15.0827 10.1892 14.496C10.6799 13.9094 10.9252 13.2 10.9252 12.368C10.9252 11.536 10.7012 10.7307 10.2532 9.95202C9.8159 9.16269 9.27723 8.76802 8.63723 8.76802C8.25323 8.76802 7.91723 8.90135 7.62923 9.16802C7.34123 9.43469 7.12257 9.78135 6.97323 10.208Z" fill="white"/>
<path fill-rule="evenodd" clip-rule="evenodd" d="M80.5477 12.5353C80.0217 11.6874 79.4123 10.884 78.7301 10.1605C79.486 9.97174 80.2047 9.8522 80.8985 9.77883C85.3083 9.32243 90.0719 9.59157 94.1447 11.4231C94.5956 11.6356 94.524 10.8832 94.2115 10.7451C89.9647 8.84983 85.0148 8.54003 80.4507 9.06224C79.6858 9.15697 78.8962 9.29786 78.1049 9.49732C77.3073 8.71181 76.4371 8.00624 75.5049 7.41607C73.825 6.33496 71.6643 5.26314 69.6792 6.1895C69.3581 6.34419 69.7243 7.04665 70.0684 6.90438C72.1493 5.91049 74.6122 7.47187 76.2993 8.7056C76.7006 9.01045 77.0895 9.33837 77.4783 9.6663C74.7212 10.5348 72.1389 12.2409 71.8736 15.2812C71.5765 18.602 74.2695 21.5066 77.6289 21.289C79.4727 21.1791 81.218 20.0346 81.7755 18.2222C82.3843 16.2588 81.5661 14.1831 80.5477 12.5353ZM77.7577 20.4956C75.3799 20.8242 73.0076 19.371 72.5281 16.9418C71.815 13.2865 74.9704 11.234 78.1393 10.319C79.3347 11.5265 80.3476 12.9632 80.947 14.5049C82.0053 17.1855 80.7709 20.0918 77.7577 20.4956Z" fill="white"/>
<path d="M95.6178 11.5602C95.0012 10.6041 94.4679 9.60365 94.018 8.55874C93.865 8.17908 93.2686 8.12636 93.4767 8.62487C93.8929 9.6219 94.3693 10.5621 94.9291 11.4578C93.9569 11.8278 93.0291 12.2812 92.1227 12.8055C91.8123 12.9957 92.1909 13.6751 92.512 13.5204C93.5018 12.9516 94.536 12.4662 95.6147 12.0642C95.746 11.986 95.7084 11.6683 95.6178 11.5602Z" fill="white"/>
</svg>
