<svg width="16" height="16" viewBox="0 0 16 16" fill="none" xmlns="http://www.w3.org/2000/svg">
<g clip-path="url(#clip0_178_126)">
<path fill-rule="evenodd" clip-rule="evenodd" d="M11.8011 0.320029C11.8609 0.224124 11.9477 0.148075 12.0506 0.101492C12.1535 0.0549091 12.268 0.0398837 12.3794 0.0583142L15.3177 0.5486C15.4671 0.573519 15.6005 0.656732 15.6886 0.779953C15.7767 0.903174 15.8122 1.05632 15.7874 1.20574L15.2983 4.14517C15.2796 4.2566 15.2283 4.35999 15.1509 4.44228C15.0735 4.52457 14.9735 4.58207 14.8634 4.60751C14.7533 4.63295 14.6382 4.62519 14.5325 4.58521C14.4268 4.54523 14.3354 4.47482 14.2697 4.38289L13.4766 3.27431L9.392 5.8846C9.21781 5.99606 9.00921 6.04079 8.80464 6.01055C8.60007 5.9803 8.41333 5.87712 8.27885 5.72003L6.00114 3.05717L1.74171 5.24574C1.53954 5.34971 1.30435 5.3691 1.08788 5.29966C0.871409 5.23022 0.69139 5.07763 0.587426 4.87546C0.483461 4.67329 0.464066 4.4381 0.533508 4.22163C0.60295 4.00516 0.75554 3.82514 0.957711 3.72117L5.82057 1.22174C5.99225 1.13354 6.18868 1.10587 6.37804 1.14321C6.56741 1.18054 6.73864 1.2807 6.864 1.42746L9.09714 4.03889L12.48 1.8766L11.8206 0.954314C11.755 0.862344 11.7182 0.753009 11.7147 0.640116C11.7113 0.527224 11.7413 0.415839 11.8011 0.320029ZM4.32 5.93146L1.00343 7.8286C0.872404 7.90344 0.763461 8.01154 0.687607 8.14198C0.611753 8.27242 0.571676 8.42057 0.571426 8.57146V15.1429C0.571426 15.616 0.955426 16 1.42857 16H4.32V5.93146ZM5.74857 16H9.94057V8.21489L8.056 9.1566L6.17257 5.8606C6.07724 5.69315 5.92828 5.56271 5.74971 5.49031L5.74857 16ZM14.5714 16H11.3691V7.5006L14.1886 6.09031C14.3192 6.02507 14.4644 5.99431 14.6103 6.00094C14.7562 6.00757 14.898 6.05138 15.0223 6.1282C15.1465 6.20502 15.249 6.31232 15.3201 6.4399C15.3912 6.56748 15.4286 6.71111 15.4286 6.85717V15.1429C15.4286 15.3702 15.3383 15.5882 15.1775 15.749C15.0168 15.9097 14.7988 16 14.5714 16Z" fill="white"/>
</g>
<defs>
<clipPath id="clip0_178_126">
<rect width="16" height="16" fill="white"/>
</clipPath>
</defs>
</svg>
