<svg width="24" height="24" viewBox="0 0 24 24" fill="none" xmlns="http://www.w3.org/2000/svg">
<path fill-rule="evenodd" clip-rule="evenodd" d="M18.483 19.79V19.788L18.501 19.745L21.5 4.625V4.577C21.5 4.2 21.36 3.871 21.058 3.674C20.793 3.501 20.488 3.489 20.274 3.505C20.0748 3.52317 19.8783 3.56342 19.688 3.625C19.6068 3.65091 19.5267 3.68027 19.448 3.713L19.435 3.718L2.715 10.277L2.71 10.279C2.65878 10.2953 2.60895 10.3157 2.561 10.34C2.44216 10.3936 2.32808 10.4571 2.22 10.53C2.005 10.678 1.596 11.026 1.665 11.578C1.722 12.036 2.037 12.326 2.25 12.477C2.37544 12.5656 2.51067 12.6394 2.653 12.697L2.685 12.711L2.695 12.714L2.702 12.717L5.628 13.702C5.61733 13.886 5.63633 14.071 5.685 14.257L7.15 19.816C7.23003 20.119 7.40297 20.3894 7.64452 20.589C7.88608 20.7887 8.18411 20.9078 8.49678 20.9294C8.80944 20.951 9.12102 20.8741 9.38777 20.7096C9.65451 20.5451 9.86302 20.3011 9.984 20.012L12.272 17.566L16.201 20.578L16.257 20.602C16.614 20.758 16.947 20.807 17.252 20.766C17.557 20.724 17.799 20.596 17.981 20.451C18.1916 20.2804 18.3593 20.0629 18.471 19.816L18.479 19.799L18.482 19.793L18.483 19.79ZM7.135 13.875C7.11878 13.8133 7.12263 13.7481 7.14601 13.6887C7.16939 13.6294 7.21107 13.579 7.265 13.545L17.186 7.245C17.186 7.245 17.77 6.89 17.749 7.245C17.749 7.245 17.853 7.307 17.54 7.598C17.244 7.875 10.469 14.416 9.783 15.078C9.74577 15.1157 9.7192 15.1627 9.706 15.214L8.6 19.434L7.135 13.875Z" fill="white"/>
</svg>
