<svg width="462" height="136" viewBox="0 0 462 136" fill="none" xmlns="http://www.w3.org/2000/svg">
<path d="M151.248 94.4446V87.1912H158.368V48.809H151.248V41.5557H178.135C181.316 41.5557 184.093 42.1097 186.466 43.2179C188.839 44.2757 190.682 45.812 191.995 47.8268C193.358 49.7912 194.04 52.1334 194.04 54.8534V55.609C194.04 58.0268 193.586 60.0164 192.677 61.5779C191.768 63.1394 190.657 64.3483 189.344 65.2046C188.082 66.0609 186.87 66.6653 185.709 67.0179V68.2268C186.87 68.529 188.107 69.1334 189.42 70.0401C190.783 70.8964 191.919 72.1053 192.828 73.6668C193.788 75.2283 194.267 77.2683 194.267 79.7868V80.5423C194.267 83.4638 193.586 85.9572 192.222 88.0223C190.859 90.0875 188.966 91.6742 186.542 92.7823C184.169 93.8905 181.417 94.4446 178.287 94.4446H151.248ZM166.623 87.0401H177.302C180.029 87.0401 182.175 86.3853 183.74 85.0757C185.305 83.766 186.088 81.9527 186.088 79.6357V78.9557C186.088 76.6386 185.305 74.8253 183.74 73.5157C182.225 72.206 180.079 71.5512 177.302 71.5512H166.623V87.0401ZM166.623 64.0712H177.302C179.877 64.0712 181.947 63.4416 183.513 62.1823C185.078 60.8727 185.86 59.1097 185.86 56.8934V56.1379C185.86 53.9216 185.078 52.1838 183.513 50.9246C181.998 49.6149 179.928 48.9601 177.302 48.9601H166.623V64.0712Z" fill="white"/>
<path d="M203.665 94.4446V57.1957H211.466V94.4446H203.665ZM207.604 52.1334C206.089 52.1334 204.801 51.6549 203.741 50.6979C202.731 49.6905 202.226 48.406 202.226 46.8446C202.226 45.2831 202.731 44.0238 203.741 43.0668C204.801 42.0594 206.089 41.5557 207.604 41.5557C209.169 41.5557 210.456 42.0594 211.466 43.0668C212.476 44.0238 212.981 45.2831 212.981 46.8446C212.981 48.406 212.476 49.6905 211.466 50.6979C210.456 51.6549 209.169 52.1334 207.604 52.1334Z" fill="white"/>
<path d="M221.226 76.009V74.8757C221.226 70.9468 222.008 67.5971 223.574 64.8268C225.189 62.0564 227.31 59.9157 229.936 58.4046C232.561 56.8934 235.439 56.1379 238.57 56.1379C242.205 56.1379 244.982 56.8179 246.901 58.1779C248.87 59.5379 250.309 60.9986 251.218 62.5601H252.43V57.1957H260.003V102.076C260.003 104.342 259.322 106.156 257.959 107.516C256.646 108.876 254.828 109.556 252.505 109.556H227.361V102.756H250.082C251.546 102.756 252.278 102 252.278 100.489V88.6268H251.066C250.511 89.5334 249.728 90.4653 248.719 91.4223C247.709 92.3794 246.371 93.1601 244.704 93.7646C243.089 94.369 241.044 94.6712 238.57 94.6712C235.439 94.6712 232.536 93.9409 229.86 92.4801C227.234 90.969 225.139 88.8283 223.574 86.0579C222.008 83.2371 221.226 79.8875 221.226 76.009ZM240.69 87.8712C244.073 87.8712 246.85 86.8134 249.022 84.6979C251.243 82.532 252.354 79.5601 252.354 75.7823V75.1023C252.354 71.2238 251.268 68.252 249.097 66.1868C246.926 64.0712 244.124 63.0134 240.69 63.0134C237.358 63.0134 234.581 64.0712 232.359 66.1868C230.188 68.252 229.103 71.2238 229.103 75.1023V75.7823C229.103 79.5601 230.188 82.532 232.359 84.6979C234.581 86.8134 237.358 87.8712 240.69 87.8712Z" fill="white"/>
<path d="M269.293 94.4446V87.1912H276.412V48.809H269.293V41.5557H296.179C299.36 41.5557 302.138 42.1097 304.511 43.2179C306.884 44.2757 308.727 45.812 310.039 47.8268C311.403 49.7912 312.084 52.1334 312.084 54.8534V55.609C312.084 58.0268 311.63 60.0164 310.721 61.5779C309.812 63.1394 308.701 64.3483 307.389 65.2046C306.126 66.0609 304.915 66.6653 303.753 67.0179V68.2268C304.915 68.529 306.152 69.1334 307.464 70.0401C308.828 70.8964 309.964 72.1053 310.873 73.6668C311.832 75.2283 312.312 77.2683 312.312 79.7868V80.5423C312.312 83.4638 311.63 85.9572 310.267 88.0223C308.903 90.0875 307.01 91.6742 304.586 92.7823C302.213 93.8905 299.461 94.4446 296.331 94.4446H269.293ZM284.667 87.0401H295.346C298.073 87.0401 300.219 86.3853 301.784 85.0757C303.349 83.766 304.132 81.9527 304.132 79.6357V78.9557C304.132 76.6386 303.349 74.8253 301.784 73.5157C300.269 72.206 298.123 71.5512 295.346 71.5512H284.667V87.0401ZM284.667 64.0712H295.346C297.921 64.0712 299.992 63.4416 301.557 62.1823C303.122 60.8727 303.905 59.1097 303.905 56.8934V56.1379C303.905 53.9216 303.122 52.1838 301.557 50.9246C300.042 49.6149 297.972 48.9601 295.346 48.9601H284.667V64.0712Z" fill="white"/>
<path d="M333.297 95.5023C330.621 95.5023 328.223 95.049 326.102 94.1423C324.032 93.2357 322.366 91.9009 321.104 90.1379C319.892 88.3749 319.286 86.2342 319.286 83.7157C319.286 81.1468 319.892 79.0312 321.104 77.369C322.366 75.6564 324.057 74.372 326.178 73.5157C328.349 72.6594 330.798 72.2312 333.525 72.2312H344.885V69.8134C344.885 67.6475 344.229 65.9097 342.916 64.6001C341.603 63.2905 339.584 62.6357 336.857 62.6357C334.181 62.6357 332.136 63.2653 330.722 64.5246C329.309 65.7838 328.375 67.4209 327.92 69.4357L320.649 67.0934C321.255 65.0786 322.215 63.2653 323.527 61.6534C324.891 59.9912 326.683 58.6564 328.905 57.649C331.126 56.6416 333.802 56.1379 336.933 56.1379C341.78 56.1379 345.592 57.372 348.369 59.8401C351.146 62.3083 352.535 65.809 352.535 70.3423V85.6801C352.535 87.1912 353.242 87.9468 354.655 87.9468H357.836V94.4446H352.005C350.237 94.4446 348.798 93.9912 347.688 93.0846C346.577 92.1779 346.021 90.9438 346.021 89.3823V89.1557H344.885C344.481 89.9112 343.875 90.7927 343.068 91.8001C342.26 92.8075 341.073 93.689 339.508 94.4446C337.943 95.1497 335.873 95.5023 333.297 95.5023ZM334.434 89.0801C337.564 89.0801 340.089 88.1986 342.007 86.4357C343.926 84.6223 344.885 82.1542 344.885 79.0312V78.2757H333.979C331.909 78.2757 330.243 78.729 328.98 79.6357C327.718 80.492 327.087 81.7764 327.087 83.489C327.087 85.2016 327.743 86.5616 329.056 87.569C330.369 88.5764 332.161 89.0801 334.434 89.0801Z" fill="white"/>
<path d="M362.716 76.009V74.8757C362.716 70.9468 363.499 67.5971 365.064 64.8268C366.68 62.0564 368.8 59.9157 371.426 58.4046C374.052 56.8934 376.93 56.1379 380.06 56.1379C383.696 56.1379 386.473 56.8179 388.391 58.1779C390.36 59.5379 391.799 60.9986 392.708 62.5601H393.92V57.1957H401.494V102.076C401.494 104.342 400.812 106.156 399.449 107.516C398.136 108.876 396.319 109.556 393.996 109.556H368.851V102.756H391.572C393.037 102.756 393.769 102 393.769 100.489V88.6268H392.557C392.001 89.5334 391.219 90.4653 390.209 91.4223C389.199 92.3794 387.861 93.1601 386.195 93.7646C384.579 94.369 382.534 94.6712 380.06 94.6712C376.93 94.6712 374.026 93.9409 371.35 92.4801C368.725 90.969 366.629 88.8283 365.064 86.0579C363.499 83.2371 362.716 79.8875 362.716 76.009ZM382.181 87.8712C385.564 87.8712 388.341 86.8134 390.512 84.6979C392.734 82.532 393.844 79.5601 393.844 75.7823V75.1023C393.844 71.2238 392.759 68.252 390.588 66.1868C388.417 64.0712 385.614 63.0134 382.181 63.0134C378.848 63.0134 376.071 64.0712 373.85 66.1868C371.679 68.252 370.593 71.2238 370.593 75.1023V75.7823C370.593 79.5601 371.679 82.532 373.85 84.6979C376.071 86.8134 378.848 87.8712 382.181 87.8712Z" fill="white"/>
<path d="M428.278 95.5023C423.532 95.5023 419.594 94.4446 416.463 92.329C413.333 90.2134 411.414 87.0149 410.707 82.7334L417.978 80.9957C418.382 83.0609 419.064 84.6979 420.023 85.9068C420.982 87.1157 422.169 87.972 423.583 88.4757C425.047 88.9794 426.612 89.2312 428.278 89.2312C430.753 89.2312 432.646 88.7527 433.959 87.7957C435.322 86.8386 436.004 85.6046 436.004 84.0934C436.004 82.5823 435.373 81.4742 434.11 80.769C432.848 80.0638 430.98 79.4846 428.506 79.0312L425.931 78.5779C423.406 78.1246 421.109 77.4697 419.038 76.6134C416.968 75.7571 415.327 74.5734 414.115 73.0623C412.904 71.5512 412.298 69.612 412.298 67.2446C412.298 63.7186 413.611 60.9986 416.236 59.0846C418.862 57.1201 422.346 56.1379 426.688 56.1379C430.879 56.1379 434.312 57.0949 436.988 59.009C439.715 60.8727 441.482 63.4164 442.29 66.6401L435.019 68.6801C434.565 66.4134 433.605 64.8268 432.141 63.9201C430.677 62.9631 428.859 62.4846 426.688 62.4846C424.567 62.4846 422.901 62.8875 421.689 63.6934C420.477 64.449 419.872 65.532 419.872 66.9423C419.872 68.4534 420.452 69.5616 421.614 70.2668C422.825 70.972 424.441 71.5009 426.461 71.8534L429.112 72.3068C431.788 72.7601 434.236 73.3897 436.458 74.1957C438.68 75.0016 440.422 76.1601 441.684 77.6712C442.997 79.1823 443.653 81.1972 443.653 83.7157C443.653 87.4431 442.265 90.3394 439.488 92.4046C436.711 94.4697 432.974 95.5023 428.278 95.5023Z" fill="white"/>
<path d="M94.3141 10.1855C95.4126 8.33983 97.208 7.57049 99.7904 7.55583C99.9623 7.55497 100.138 7.55754 100.318 7.56303C103.185 7.65309 106.672 8.8161 109.486 10.5683C112.299 12.3208 114.353 14.6672 114.904 16.5316C115.456 18.396 115.214 19.8704 112.216 21.8913C110.992 22.7167 109.758 23.5383 108.52 24.3627C101.944 28.7433 95.2475 33.2038 89.1301 38.7349C87.5034 37.6089 85.6483 36.6778 83.7072 35.9411C82.9844 35.6668 82.2455 35.4206 81.4968 35.207C83.7238 27.5715 87.9322 20.6752 91.9487 14.0935C92.7506 12.7794 93.5448 11.4779 94.3141 10.1855Z" fill="#2AB229"/>
<path d="M75.2598 12.9556C76.8785 9.39272 78.9303 7.70095 81.5755 7.74777C83.2212 7.77711 85.4826 8.62287 88.2043 10.8089C87.9938 11.1516 87.7818 11.4962 87.5685 11.8429C83.4879 18.4742 78.9525 25.8447 76.5853 34.3595C76.0546 34.3332 75.5266 34.3293 75.0013 34.3517C74.9791 34.3527 74.9572 34.3542 74.9352 34.3558C74.9162 34.3571 74.8972 34.3585 74.878 34.3595C72.5639 26.7049 72.8997 18.1516 75.2598 12.9556Z" fill="#2AB229"/>
<path d="M53.1212 26.7057L55.8931 22.7252C56.0159 22.8063 56.139 22.8875 56.2621 22.9688C60.0539 25.4712 63.9888 28.0681 67.2529 31.5139C68.3632 32.6857 69.3878 33.9665 70.2914 35.3663C70.2591 35.3798 70.2265 35.3932 70.194 35.4065C70.1183 35.4376 70.0424 35.4688 69.9673 35.5027C68.5586 36.1436 67.3215 37.0941 66.3532 38.2795C65.5771 37.0226 64.6653 35.8693 63.6315 34.7783C60.7917 31.781 57.0335 29.289 53.1212 26.7057Z" fill="#2AB229"/>
<path d="M111.284 28.3463C112.51 27.5293 113.738 26.7101 114.966 25.8823C115.258 26.2919 115.529 26.714 115.781 27.148C117.302 29.7913 117.689 32.3731 117.184 34.0908C116.679 35.8086 115.576 37.0014 112.545 37.4944C106.095 38.5435 98.4907 40.7519 93.0314 42.4887C92.9232 42.3364 92.8149 42.1841 92.6993 42.0359C98.4211 36.9232 104.805 32.6664 111.284 28.3463Z" fill="#2AB229"/>
<path d="M44.2445 41.4842C47.9997 39.3059 51.9021 38.2509 55.8487 38.1995C58.9791 38.1591 62.1367 38.7524 65.2703 39.9154C65.1666 40.113 65.0663 40.3137 64.9739 40.5211C64.4554 41.6915 64.1273 42.996 63.9897 44.4347C58.0219 41.9723 52.4863 42.2921 46.769 45.6088L44.2445 41.4842Z" fill="#2AB229"/>
<path d="M72.0507 39.8616C73.0618 39.4026 74.3867 39.1903 75.8593 39.2117C76.0698 39.2146 76.2833 39.2225 76.4995 39.2354C78.2268 39.3357 80.1159 39.7386 81.9173 40.4226C85.5206 41.7901 88.6217 44.2808 89.5351 46.1527C89.9915 47.0883 90.0219 47.7022 89.7025 48.4221C89.4958 48.8892 89.0277 49.4745 88.1784 50.1036C86.3345 48.629 84.3947 47.473 82.3582 46.7113C77.9427 45.0594 73.5779 44.3251 69.34 44.3467C69.2733 44.3471 69.2068 44.3492 69.1401 44.3512C69.0867 44.3528 69.0332 44.3544 68.9797 44.3552C69.0887 43.5951 69.2703 42.9537 69.5037 42.427C70.0797 41.126 70.8952 40.386 72.0507 39.8616Z" fill="#2AB229"/>
<path fill-rule="evenodd" clip-rule="evenodd" d="M52.1642 54.1968C57.5174 51.0073 63.2566 49.1261 69.3236 49.1068C72.9638 49.0955 76.7215 49.7576 80.5926 51.2054C84.6711 52.731 89.3487 57.3236 93.2809 63.7086C97.213 70.0936 100.462 78.1737 102.282 86.3192C104.101 94.4647 104.48 102.686 102.909 109.3C101.337 115.914 98.0142 120.793 92.217 123.235C83.2191 127.025 71.3395 128.623 60.0433 128.429C48.7468 128.235 37.9908 126.221 31.4248 123.259H31.4163L31.3833 123.243C25.4298 120.538 22.7073 114.309 22.7212 105.802C22.7352 97.2803 25.7331 86.859 30.9541 77.3624C36.1756 67.8658 43.599 59.3005 52.1642 54.1968ZM99.4472 104.089C100.867 90.1101 96.8408 73.0624 85.5497 66.766C70.1912 58.2013 55.0813 80.9686 47.5676 93.7685C47.0597 94.7604 46.5609 95.7175 46.0787 96.6429C39.9656 108.373 36.5116 115.001 50.747 122.939C61.7697 125.841 71.4431 125.476 82.6871 122.174C91.3909 119.618 98.5485 112.938 99.4472 104.089Z" fill="#2AB229"/>
</svg>
