<svg width="371" height="96" viewBox="0 0 371 96" fill="none" xmlns="http://www.w3.org/2000/svg">
<path d="M1 47.4999C1 6.76661 15.4 -28.0001 44.2 -56.8001C73 -85.6001 107.767 -100 148.5 -100H319.5C360.233 -100 395 -85.6001 423.8 -56.8001C452.6 -28.0001 467 6.76661 467 47.4999V48.4999C467 89.2333 452.6 124 423.8 152.8C395 181.6 360.233 196 319.5 196H148.5C107.767 196 73 181.6 44.2 152.8C15.4 124 1 89.2333 1 48.4999V47.4999Z" stroke="white" stroke-opacity="0.1"/>
<path d="M11 47.4999C11 9.49994 24.4333 -22.9001 51.3 -49.7001C78.1 -76.5667 110.5 -90.0001 148.5 -90.0001H319.5C357.5 -90.0001 389.9 -76.5667 416.7 -49.7001C443.567 -22.9001 457 9.49994 457 47.4999V48.4999C457 86.4999 443.567 118.9 416.7 145.7C389.9 172.567 357.5 186 319.5 186H148.5C110.5 186 78.1 172.567 51.3 145.7C24.4333 118.9 11 86.4999 11 48.4999V47.4999Z" stroke="white" stroke-opacity="0.1"/>
<path d="M21 47.5C21 12.3 33.4333 -17.7667 58.3 -42.7C83.2333 -67.5667 113.3 -80 148.5 -80H319.5C354.7 -80 384.767 -67.5667 409.7 -42.7C434.567 -17.7667 447 12.3 447 47.5V48.5C447 83.7 434.567 113.767 409.7 138.7C384.767 163.567 354.7 176 319.5 176H148.5C113.3 176 83.2333 163.567 58.3 138.7C33.4333 113.767 21 83.7 21 48.5V47.5Z" stroke="white" stroke-opacity="0.1"/>
<path d="M31 47.5C31 15.0333 42.4667 -12.6667 65.4 -35.6C88.3333 -58.5333 116.033 -70 148.5 -70H319.5C351.967 -70 379.667 -58.5333 402.6 -35.6C425.533 -12.6667 437 15.0333 437 47.5V48.5C437 80.9667 425.533 108.667 402.6 131.6C379.667 154.533 351.967 166 319.5 166H148.5C116.033 166 88.3333 154.533 65.4 131.6C42.4667 108.667 31 80.9667 31 48.5V47.5Z" stroke="white" stroke-opacity="0.1"/>
<path d="M41 47.5C41 17.8333 51.5 -7.5 72.5 -28.5C93.5 -49.5 118.833 -60 148.5 -60H319.5C349.167 -60 374.5 -49.5 395.5 -28.5C416.5 -7.5 427 17.8333 427 47.5V48.5C427 78.1667 416.5 103.5 395.5 124.5C374.5 145.5 349.167 156 319.5 156H148.5C118.833 156 93.5 145.5 72.5 124.5C51.5 103.5 41 78.1667 41 48.5V47.5Z" stroke="white" stroke-opacity="0.1"/>
<path d="M51 47.5C51 20.5667 60.5333 -2.4 79.6 -21.4C98.6 -40.4667 121.567 -50 148.5 -50H319.5C346.433 -50 369.4 -40.4667 388.4 -21.4C407.467 -2.4 417 20.5667 417 47.5V48.5C417 75.4333 407.467 98.4 388.4 117.4C369.4 136.467 346.433 146 319.5 146H148.5C121.567 146 98.6 136.467 79.6 117.4C60.5333 98.4 51 75.4333 51 48.5V47.5Z" stroke="white" stroke-opacity="0.1"/>
<path d="M61 47.5C61 23.3667 69.5333 2.73333 86.6 -14.4C103.733 -31.4667 124.367 -40 148.5 -40H319.5C343.633 -40 364.267 -31.4667 381.4 -14.4C398.467 2.73333 407 23.3667 407 47.5V48.5C407 72.6333 398.467 93.2667 381.4 110.4C364.267 127.467 343.633 136 319.5 136H148.5C124.367 136 103.733 127.467 86.6 110.4C69.5333 93.2667 61 72.6333 61 48.5V47.5Z" stroke="white" stroke-opacity="0.1"/>
<path d="M71 47.5C71 26.1 78.5667 7.83333 93.7 -7.3C108.833 -22.4333 127.1 -30 148.5 -30H319.5C340.9 -30 359.167 -22.4333 374.3 -7.3C389.433 7.83333 397 26.1 397 47.5V48.5C397 69.9 389.433 88.1667 374.3 103.3C359.167 118.433 340.9 126 319.5 126H148.5C127.1 126 108.833 118.433 93.7 103.3C78.5667 88.1667 71 69.9 71 48.5V47.5Z" stroke="white" stroke-opacity="0.1"/>
<path d="M81 47.5C81 28.8333 87.6 12.9333 100.8 -0.200001C113.933 -13.4 129.833 -20 148.5 -20H319.5C338.167 -20 354.067 -13.4 367.2 -0.200001C380.4 12.9333 387 28.8333 387 47.5V48.5C387 67.1667 380.4 83.0667 367.2 96.2C354.067 109.4 338.167 116 319.5 116H148.5C129.833 116 113.933 109.4 100.8 96.2C87.6 83.0667 81 67.1667 81 48.5V47.5Z" stroke="white" stroke-opacity="0.1"/>
<path d="M91 47.5C91 31.6333 96.6 18.0667 107.8 6.8C119.067 -4.4 132.633 -10 148.5 -10H319.5C335.367 -10 348.933 -4.4 360.2 6.8C371.4 18.0667 377 31.6333 377 47.5V48.5C377 64.3667 371.4 77.9333 360.2 89.2C348.933 100.4 335.367 106 319.5 106H148.5C132.633 106 119.067 100.4 107.8 89.2C96.6 77.9333 91 64.3667 91 48.5V47.5Z" stroke="white" stroke-opacity="0.1"/>
<path d="M101 47.5C101 34.3667 105.633 23.1667 114.9 13.9C124.167 4.63333 135.367 0 148.5 0H319.5C332.633 0 343.833 4.63333 353.1 13.9C362.367 23.1667 367 34.3667 367 47.5V48.5C367 61.6333 362.367 72.8333 353.1 82.1C343.833 91.3667 332.633 96 319.5 96H148.5C135.367 96 124.167 91.3667 114.9 82.1C105.633 72.8333 101 61.6333 101 48.5V47.5Z" stroke="white" stroke-opacity="0.1"/>
<path d="M111 47.5C111 37.1667 114.667 28.3333 122 21C129.333 13.6667 138.167 10 148.5 10H319.5C329.833 10 338.667 13.6667 346 21C353.333 28.3333 357 37.1667 357 47.5V48.5C357 58.8333 353.333 67.6667 346 75C338.667 82.3333 329.833 86 319.5 86H148.5C138.167 86 129.333 82.3333 122 75C114.667 67.6667 111 58.8333 111 48.5V47.5Z" stroke="white" stroke-opacity="0.1"/>
<rect x="121.5" y="20.5" width="225" height="55" rx="27" stroke="white" stroke-opacity="0.1"/>
</svg>
